<?xml version="1.0" encoding="utf-8"?>
<!-- Generator: Adobe Illustrator 27.9.0, SVG Export Plug-In . SVG Version: 6.00 Build 0)  -->
<svg version="1.1" id="Layer_1" xmlns="http://www.w3.org/2000/svg" xmlns:xlink="http://www.w3.org/1999/xlink" x="0px" y="0px"
	 width="66.9px" height="81.8px" viewBox="0 0 66.9 81.8" style="enable-background:new 0 0 66.9 81.8;" xml:space="preserve">
<style type="text/css">
	.st0{fill:#E3AD7F;}
	.st1{fill:#EECFBB;}
	.st2{fill:#C6322B;}
	.st3{fill:#F15847;}
	.st4{fill:#FAFCFE;}
</style>
<g>
	<path class="st0" d="M30.3,43.6c-0.2-0.5-0.8-2.3-0.7-4.6L16.5,20.4c-1.2-1.7-3.5-2.1-5.2-0.9c-1.7,1.2-2.1,3.5-0.9,5.2l14.2,20.1
		C27.1,43.2,29.6,43.6,30.3,43.6z"/>
	<path class="st0" d="M62.9,65.5L62.9,65.5L59,60c2.3-5.9,4.4-16.2,3.5-20.8l-4-16.5l1.6,6.4c-1.5-0.1-2.9-0.4-3.6-1.8
		c-0.5-2.1-0.1-4.2,1.7-5.8c0.3,0.6,0.3,1.2,0.3,1.2s-0.3-2.6-2-2.1c-1,0.3-5.5,3-4.1,9.1c0.4,1.8,1.2,7.7,1.2,7.7s-0.7,2.9-1.6,6.4
		c-0.3-0.5-1.3-2.2-2.5-4c1.3,5.7-0.2,12.8-0.1,17.1c-5.4,1.8-14.7,8.3-21.7,5.6c2.1,2.6,4.4,5.3,6.7,7c0.8,0.6,2,1.5,3.2,2.2
		l4.3,6.1l0,0C50.1,76,57.4,71.6,62.9,65.5z"/>
	<path class="st0" d="M43.3,31.9c0.5,0.3,1,0.5,1.4,0.8L28.2,9.3C27,7.7,24.7,7.3,23,8.4c-1.7,1.2-2.1,3.5-0.9,5.2l12.4,17.6
		C36.8,30.2,39.9,30.2,43.3,31.9z"/>
	<path class="st0" d="M34,31.5L19.7,11.2c-1.2-1.7-3.5-2.1-5.2-0.9c-1.7,1.2-2.1,3.5-0.9,5.2l16,22.7c0.3-1.9,1.1-4,3-5.8
		C33.1,32.1,33.5,31.7,34,31.5z"/>
	<path class="st0" d="M24.2,45.1l-9.1-13c-1.1-1.6-3.3-1.9-4.8-0.8c-1.6,1.1-1.9,3.3-0.8,4.9l11,15.6c0.1-1.3,0.5-2.5,1.1-3.5
		C22.3,46.8,23.2,45.8,24.2,45.1z"/>
	<path class="st1" d="M56.4,27.3c0.7,1.3,2.1,1.7,3.6,1.8l-1.6-6.4c0,0-0.1-0.6-0.3-1.2C56.3,23.2,55.9,25.3,56.4,27.3z"/>
	<path class="st2" d="M45,32.9c6.7,5.1,3.4,17.3,3.7,23.4c-5.8,1.9-16,9.3-23.2,4.8c0.7,0.5,1.4,0.9,2.2,1.2
		c7,2.8,16.3-3.8,21.7-5.6c-0.2-4.2,1.3-11.4,0.1-17.1C48.8,36.9,47.5,34.5,45,32.9z"/>
	<path class="st3" d="M48.7,56.3c-0.3-6.1,3-18.3-3.7-23.4c-0.1-0.1-0.2-0.1-0.3-0.2c-0.4-0.3-0.9-0.6-1.4-0.8
		c-3.4-1.6-6.5-1.7-8.8-0.6c-0.2,0.1-0.3,0.1-0.5,0.2c-0.5,0.3-1,0.6-1.4,1c-2,1.8-2.8,3.9-3,5.8c0,0.3-0.1,0.5-0.1,0.7
		c-0.1,2.3,0.5,4.1,0.7,4.6c-0.7,0-3.2-0.3-5.7,1.2c-0.1,0.1-0.3,0.2-0.4,0.3c-1,0.7-1.9,1.7-2.7,3.1c-0.6,1.1-1,2.3-1.1,3.5
		c-0.2,2.6,0.8,5.4,3.6,8.1c0.5,0.5,1,0.9,1.6,1.2C32.6,65.6,42.9,58.2,48.7,56.3z M29.4,48.7c0-1.7,0.5-3.3,1.4-4.7
		c0,1.2,0.2,2.5,0.6,3.6c0.1,0.2,0.2,0.5,0.3,0.7c-0.7,0.3-1.5,0.6-2.2,0.7C29.4,49,29.4,48.9,29.4,48.7z M43.1,42.6l-2.2,2.3
		c-0.9-0.9-2-1.6-3.2-2.1c0.1-0.3,0.2-0.6,0.3-0.9c0.1-0.5,0.3-0.9,0.3-1.4c-0.2,0-0.3,0-0.5,0c0.2,0,0.3,0,0.5,0c0,0,0,0,0,0
		C40.1,40.7,41.8,41.4,43.1,42.6z M45.7,48.2c0-0.1,0-0.2,0-0.3C45.7,48,45.7,48.1,45.7,48.2z M34.8,46.2c-0.8,0.8-1.7,1.5-2.7,1.9
		c-0.6-1.5-0.9-3.1-0.8-4.8c0.1-0.1,0.2-0.2,0.2-0.3L34.8,46.2z M31.7,43C31.7,43,31.7,43,31.7,43C31.7,42.9,31.7,42.9,31.7,43
		C31.7,42.9,31.7,43,31.7,43z M35.1,45.9l-3.2-3.1c0.1-0.1,0.2-0.2,0.4-0.3c1.6-0.2,3.3,0,4.8,0.6C36.5,44.1,35.9,45,35.1,45.9z
		 M37.4,43.2c1.1,0.5,2.2,1.2,3.1,2l-3,3l-2.1-2.1C36.2,45.3,36.9,44.3,37.4,43.2z M35.1,46.6l2.1,2.1l-2.9,3
		c-0.9-0.9-1.6-1.9-2.1-3C33.3,48.1,34.3,47.4,35.1,46.6z M37.6,49l2.3,2.2C39,52,38.4,53,37.9,54c-1.2-0.5-2.3-1.2-3.2-2.1L37.6,49
		z M37.9,48.6l3-3c0.9,0.9,1.7,2,2.2,3.2c-1.1,0.5-2,1.2-2.9,2.1L37.9,48.6z M41.2,45.2l2.2-2.3c1.3,1.3,2.1,3,2.3,4.9
		c-0.4,0.1-0.9,0.2-1.3,0.4c-0.3,0.1-0.6,0.2-0.9,0.4C42.9,47.3,42.1,46.2,41.2,45.2z M37.4,40.5c0.1,0,0.2,0,0.4,0
		c-0.1,0.7-0.3,1.5-0.6,2.2c-0.2-0.1-0.4-0.2-0.6-0.2c-1.2-0.4-2.4-0.5-3.6-0.5c0,0,0,0-0.1,0c-0.2,0.1-0.4,0.3-0.6,0.5
		c0.2-0.2,0.4-0.3,0.6-0.5c0,0,0,0,0.1,0c0,0,0,0,0,0C34.2,41,35.8,40.5,37.4,40.5z M31.2,43.5c0,0.1-0.1,0.1-0.1,0.2
		C31.1,43.6,31.2,43.5,31.2,43.5z M31,43.8c0,0.1-0.1,0.1-0.1,0.2C30.9,43.9,30.9,43.8,31,43.8z M29.5,49.6
		C29.5,49.6,29.5,49.6,29.5,49.6c0-0.1,0-0.3,0-0.4C29.4,49.3,29.4,49.4,29.5,49.6c0.5-0.1,0.9-0.2,1.4-0.4c0.3-0.1,0.6-0.2,1-0.4
		c0.5,1.2,1.3,2.2,2.2,3.1l-2.3,2.4C30.5,53.1,29.7,51.4,29.5,49.6z M31.9,54.5C31.9,54.5,31.9,54.5,31.9,54.5
		C31.9,54.5,31.9,54.5,31.9,54.5C31.9,54.5,31.9,54.5,31.9,54.5z M32,54.6l2.3-2.4c1,0.9,2.1,1.7,3.4,2.2c-0.1,0.3-0.3,0.7-0.4,1
		c-0.1,0.4-0.2,0.9-0.3,1.3C35.1,56.6,33.4,55.9,32,54.6z M37.1,56.8c0.1,0,0.2,0,0.3,0C37.3,56.8,37.2,56.8,37.1,56.8z M37.7,56.8
		c-0.1,0-0.1,0-0.2,0c0.1-0.7,0.4-1.5,0.7-2.2c0.2,0.1,0.3,0.1,0.5,0.2c1.2,0.4,2.4,0.5,3.7,0.5C41,56.2,39.4,56.8,37.7,56.8z
		 M42.4,55.2c0,0,0.1-0.1,0.1-0.1C42.5,55.1,42.5,55.1,42.4,55.2z M42.7,54.9c0.1,0,0.1-0.1,0.2-0.1C42.8,54.8,42.8,54.9,42.7,54.9z
		 M43,54.7c-1.6,0.2-3.2,0-4.6-0.6c0.5-1,1.1-1.9,1.8-2.7l3.1,3C43.1,54.6,43.1,54.7,43,54.7z M43.6,54.1l-3.1-3
		c0.8-0.8,1.7-1.5,2.7-2c0.6,1.4,0.8,3,0.7,4.6C43.8,53.9,43.7,54,43.6,54.1z M44.4,53.1C44.4,53.1,44.4,53.1,44.4,53.1
		c-0.2,0.3-0.3,0.5-0.5,0.7C44.1,53.6,44.2,53.3,44.4,53.1C44.4,53.1,44.4,53.1,44.4,53.1c0-1.2-0.2-2.4-0.6-3.6
		c-0.1-0.2-0.1-0.3-0.2-0.5c0.7-0.3,1.4-0.5,2.1-0.7c0,0.1,0,0.1,0,0.2C45.7,50.2,45.2,51.8,44.4,53.1
		C44.4,53.1,44.4,53.1,44.4,53.1z"/>
	<path class="st4" d="M39.8,51.2L37.6,49l-2.9,3c1,0.9,2.1,1.6,3.2,2.1C38.4,53,39,52,39.8,51.2z"/>
	<path class="st4" d="M43,48.8c-0.5-1.2-1.2-2.2-2.2-3.2l-3,3l2.3,2.2C41,50,42,49.3,43,48.8z"/>
	<path class="st4" d="M40.5,45.2c-0.9-0.9-2-1.5-3.1-2c-0.5,1.1-1.2,2.1-2,3l2.1,2.1L40.5,45.2z"/>
	<path class="st4" d="M32.2,42.4c-0.1,0.1-0.2,0.2-0.4,0.3l3.2,3.1c0.8-0.9,1.4-1.8,1.9-2.8C35.5,42.5,33.9,42.3,32.2,42.4z"/>
	<path class="st4" d="M38.3,54.2c1.5,0.5,3,0.7,4.6,0.6c0.1-0.1,0.2-0.2,0.3-0.3l-3.1-3C39.4,52.3,38.8,53.2,38.3,54.2z"/>
	<path class="st4" d="M43.2,49.2c-1,0.5-1.9,1.2-2.7,2l3.1,3c0.1-0.1,0.2-0.2,0.3-0.4C44,52.2,43.8,50.6,43.2,49.2z"/>
	<path class="st4" d="M44.4,48.2c0.4-0.1,0.9-0.3,1.3-0.4c-0.2-1.9-1-3.6-2.3-4.9l-2.2,2.3c1,1,1.7,2.1,2.3,3.3
		C43.8,48.4,44.1,48.3,44.4,48.2z"/>
	<path class="st4" d="M37.7,54.4c-1.2-0.5-2.4-1.2-3.4-2.2L32,54.6c1.3,1.2,3.1,2,5,2.1c0.1-0.4,0.2-0.9,0.3-1.3
		C37.4,55.1,37.6,54.8,37.7,54.4z"/>
	<path class="st4" d="M37.2,48.6l-2.1-2.1c-0.8,0.8-1.8,1.5-2.8,2c0.5,1.1,1.2,2.1,2.1,3L37.2,48.6z"/>
	<path class="st4" d="M31.3,43.4c-0.1,1.7,0.1,3.3,0.8,4.8c1-0.5,1.9-1.1,2.7-1.9l-3.2-3.1C31.5,43.2,31.4,43.3,31.3,43.4z"/>
	<path class="st4" d="M37.6,42.8c1.2,0.5,2.3,1.2,3.2,2.1l2.2-2.3c-1.3-1.2-3-1.9-4.8-2.1c-0.1,0.5-0.2,1-0.3,1.4
		C37.8,42.2,37.7,42.5,37.6,42.8z"/>
	<path class="st4" d="M37.8,40.5c0.2,0,0.3,0,0.5,0c0,0,0,0,0,0C38.1,40.5,38,40.5,37.8,40.5z"/>
	<path class="st4" d="M45.7,48.3c-0.7,0.2-1.4,0.4-2.1,0.7c0.1,0.2,0.1,0.3,0.2,0.5c0.4,1.2,0.6,2.4,0.6,3.6
		c0.9-1.3,1.3-2.9,1.3-4.6C45.7,48.4,45.7,48.4,45.7,48.3z"/>
	<path class="st4" d="M44.4,53.1C44.4,53.1,44.4,53.1,44.4,53.1C44.4,53.1,44.4,53.1,44.4,53.1C44.4,53.1,44.4,53.1,44.4,53.1z"/>
	<path class="st4" d="M44.4,53.1c-0.1,0.2-0.3,0.4-0.5,0.6C44.1,53.6,44.2,53.3,44.4,53.1z"/>
	<path class="st4" d="M31.9,54.5C31.9,54.5,31.9,54.5,31.9,54.5C31.9,54.5,31.9,54.5,31.9,54.5C31.9,54.5,31.9,54.5,31.9,54.5z"/>
	<path class="st4" d="M38.1,54.6c-0.3,0.7-0.5,1.4-0.7,2.2c0.1,0,0.1,0,0.2,0c1.7,0,3.3-0.6,4.6-1.5c-1.2,0-2.5-0.1-3.7-0.5
		C38.5,54.7,38.3,54.7,38.1,54.6z"/>
	<path class="st4" d="M31.4,47.7c-0.4-1.2-0.6-2.4-0.6-3.6c-0.9,1.3-1.4,2.9-1.4,4.7c0,0.1,0,0.2,0,0.4c0.8-0.2,1.5-0.4,2.2-0.7
		C31.5,48.2,31.5,47.9,31.4,47.7z"/>
	<path class="st4" d="M32.9,42c-0.2,0.1-0.4,0.3-0.6,0.5C32.4,42.3,32.6,42.1,32.9,42z"/>
	<path class="st4" d="M36.5,42.4c0.2,0.1,0.4,0.1,0.6,0.2c0.3-0.7,0.5-1.4,0.6-2.2c-0.1,0-0.2,0-0.4,0c-1.7,0-3.2,0.6-4.5,1.4
		C34.1,41.9,35.4,42,36.5,42.4z"/>
	<path class="st4" d="M32.9,42C32.9,41.9,32.9,41.9,32.9,42C32.9,41.9,32.9,41.9,32.9,42C32.9,41.9,32.9,42,32.9,42z"/>
	<path class="st4" d="M29.5,49.6C29.5,49.6,29.5,49.6,29.5,49.6c0-0.1,0-0.3,0-0.4C29.4,49.3,29.4,49.4,29.5,49.6z"/>
	<path class="st4" d="M31.8,48.8c-0.3,0.1-0.6,0.3-1,0.4c-0.5,0.2-0.9,0.3-1.4,0.4c0.2,1.8,1,3.5,2.2,4.7l2.3-2.4
		C33.1,51,32.4,50,31.8,48.8z"/>
	<path class="st4" d="M31.7,43C31.7,43,31.7,42.9,31.7,43C31.7,42.9,31.7,42.9,31.7,43C31.7,43,31.7,43,31.7,43z"/>
</g>
</svg>
